<svg id="character" xmlns="http://www.w3.org/2000/svg" viewBox="0 0 455.17 594.25">
  <defs>
    <style>
      .cls-1 {
        fill: #ffc1a4;
      }

      .cls-2 {
        fill: #ea0a0a;
        stroke: #000;
        stroke-miterlimit: 10;
      }

      .cls-3 {
        fill: #757575;
      }
    </style>
  </defs>
  <title>character</title>
  <polygon id="person" points="117.41 0 181.53 0 181.53 9.03 190.56 9.03 190.56 17.16 199.59 17.16 199.59 25.29 207.72 25.29 207.72 42.45 218.56 42.45 218.56 99.34 208.62 99.34 208.62 117.41 198.69 117.41 199.59 125.53 190.56 125.53 190.56 135.47 209.52 135.47 209.52 144.5 218.56 144.5 218.56 153.53 227.59 153.53 227.59 162.56 235.71 162.56 235.71 172.5 246.55 172.5 246.55 180.62 254.68 180.62 254.68 198.69 272.74 198.69 272.74 207.72 283.58 207.72 283.58 217.65 291.71 217.65 291.71 226.68 388.34 226.68 388.34 235.71 399.18 235.71 399.18 224.88 409.11 224.88 409.11 235.71 455.17 235.71 455.17 252.87 417.24 252.87 417.24 262.81 407.31 262.81 407.31 271.84 398.28 271.84 398.28 288.1 389.25 288.1 389.25 298.03 344.09 298.03 344.09 306.16 335.06 306.16 335.06 316.09 317.9 316.09 317.9 324.22 290.81 324.22 290.81 314.29 279.97 314.29 279.97 306.16 236.62 306.16 236.62 361.25 226.68 361.25 226.68 370.28 217.65 370.28 217.65 380.21 226.68 380.21 226.68 405.5 236.62 405.5 236.62 460.59 247.46 460.59 247.46 495.81 255.58 495.81 255.58 524.71 263.71 524.71 263.71 558.13 272.74 558.13 272.74 569.87 286.29 569.87 286.29 594.25 220.36 594.25 220.36 550 208.62 550 208.62 513.88 198.69 513.88 198.69 496.72 190.56 496.72 190.56 468.72 182.43 468.72 182.43 442.53 171.59 442.53 171.59 406.4 163.47 406.4 163.47 387.44 154.43 387.44 154.43 371.18 146.31 371.18 146.31 388.34 137.27 388.34 137.27 407.31 125.53 407.31 125.53 441.63 117.41 441.63 117.41 466.91 109.28 466.91 109.28 496.72 100.25 496.72 100.25 513.88 89.41 513.88 89.41 549.1 81.28 549.1 81.28 594.25 20.77 594.25 20.77 568.97 28.9 568.97 28.9 560.84 37.93 560.84 37.93 523.81 48.77 523.81 48.77 494.01 56.9 494.01 56.9 458.79 65.93 458.79 65.93 403.69 75.86 403.69 75.86 378.41 83.99 378.41 83.99 370.28 74.96 370.28 74.96 361.25 65.03 361.25 65.03 316.09 46.06 316.09 46.06 306.16 37.03 306.16 37.03 297.13 28 297.13 28 287.19 9.03 287.19 9.03 233.91 0 233.91 0 217.65 36.13 217.65 36.13 197.78 46.06 197.78 46.06 179.72 56.9 179.72 56.9 170.69 65.03 170.69 65.03 161.66 74.96 161.66 74.96 151.72 84.89 151.72 84.89 142.69 93.92 142.69 93.92 134.56 110.18 134.56 110.18 123.73 100.25 123.73 100.25 113.79 91.22 113.79 91.22 98.44 80.38 98.44 80.38 44.25 90.31 44.25 90.31 25.29 101.15 25.29 101.15 16.26 109.28 16.26 109.28 8.13 117.41 8.13 117.41 0"/>
  <polygon id="face" class="cls-1" points="136.37 44.25 136.37 52.38 110.18 52.38 110.18 79.47 119.21 79.47 119.21 96.63 128.24 96.63 128.24 107.47 136.37 107.47 136.37 116.5 147.21 116.5 147.21 134.56 156.24 134.56 156.24 117.41 165.27 117.41 165.27 108.37 174.3 108.37 174.3 97.54 182.43 97.54 182.43 79.47 190.56 79.47 190.56 53.28 164.37 53.28 164.37 44.25 136.37 44.25"/>
  <polygon id="arm" class="cls-1" points="37.03 225.78 55.09 225.78 55.09 233.91 74.06 233.91 74.06 243.84 63.22 243.84 63.22 272.74 74.06 272.74 74.06 280.87 118.31 280.87 118.31 290.81 129.15 290.81 129.15 279.97 172.5 279.97 172.5 290.81 181.53 290.81 181.53 306.16 173.4 306.16 173.4 315.19 136.37 315.19 136.37 306.16 125.53 306.16 125.53 315.19 82.18 315.19 82.18 306.16 46.06 306.16 46.06 297.13 37.03 297.13 37.03 289 28 289 28 242.94 36.13 242.94 37.03 225.78"/>
  <polygon id="hand" class="cls-1" points="291.71 297.13 291.71 315.19 317.9 315.19 317.9 306.16 335.06 306.16 335.06 297.13 291.71 297.13"/>
  <rect id="mouth" class="cls-2" x="147.53" y="94.44" width="9.04" height="16.25"/>
  <rect id="eye1" x="132.79" y="67.55" width="6.12" height="14.56"/>
  <rect id="eye2" x="162.68" y="67.55" width="6.12" height="14.56"/>
  <rect id="eyebrow1" x="353.32" y="172.49" width="20.18" height="2.65" transform="translate(-170.29 -205.51) rotate(15.64)"/>
  <rect id="eyebrow2" x="389.34" y="172.49" width="20.18" height="2.65" transform="translate(-262.06 -4.22) rotate(-15.06)"/>
  <polygon id="gun" class="cls-3" points="13.28 226.89 37.03 226.89 37.03 219.23 52.61 219.23 65.97 219.23 65.97 226.89 82.3 226.89 100.85 226.89 126.82 226.89 126.82 215.51 117.92 215.51 117.92 207.35 106.99 207.35 106.99 199.93 141.13 199.93 218.84 199.93 218.84 208.09 255.94 208.09 268.56 208.09 268.56 217 278.95 217 278.95 226.89 287.11 226.89 287.11 235.55 385.06 235.55 385.06 244.46 404.36 244.46 404.36 261.52 404.36 271.6 388.03 271.6 388.03 290.47 370.96 290.47 342.02 290.47 308.63 290.47 284.88 290.47 284.88 307.27 229.81 307.27 229.81 352.8 195.83 356.51 195.83 298.24 183.75 298.24 183.75 286.01 177.92 280.18 154.28 280.18 79.33 280.18 79.33 271.6 68.19 271.6 68.19 245.2 77.1 245.2 77.1 234.81 58.55 234.81 58.55 228.13 37.03 226.89 37.03 241.49 13.28 241.49 13.28 226.89"/>
  <g id="gunDetails">
    <rect x="97.88" y="247.05" width="34.91" height="8.16"/>
    <rect x="156.57" y="247.05" width="33.99" height="8.16"/>
    <rect x="216.61" y="247.05" width="28.94" height="8.16"/>
    <rect x="202.51" y="291.58" width="6.31" height="47.49"/>
    <rect x="216.61" y="278.22" width="2.97" height="52.69"/>
    <rect x="245.55" y="270.48" width="78.66" height="7.74"/>
    <rect x="349.45" y="266.35" width="30.43" height="8"/>
  </g>
</svg>
